<svg width="25" height="23" viewBox="0 0 25 23" fill="none" xmlns="http://www.w3.org/2000/svg">
<path d="M3.70588 6.10416H16.0312C16.367 6.10416 16.6995 6.03821 17.0097 5.91009C17.32 5.78196 17.6018 5.59416 17.8393 5.35742C18.0767 5.12067 18.2651 4.83961 18.3936 4.53029C18.5221 4.22096 18.5882 3.88943 18.5882 3.55462C18.5882 1.37605 16.0258 0.201109 14.3671 1.61887L13.8529 2.05728M1 11.5H21.1615C22.7282 11.5 24 12.768 24 14.3301C24 17.2331 20.1401 18.2556 18.6965 15.7344L18.5882 15.5469M3.70588 16.8958H11.9724C12.6505 16.8958 13.3009 17.1644 13.7805 17.6426C14.26 18.1207 14.5294 18.7692 14.5294 19.4454C14.5294 21.6239 11.9669 22.7989 10.3082 21.3811L9.79412 20.9427" stroke="#999999" stroke-linecap="round" stroke-linejoin="round"/>
</svg>
