<svg width="28" height="23" viewBox="0 0 28 23" fill="none" xmlns="http://www.w3.org/2000/svg">
<line x1="4.33625" y1="3.56972" x2="6.35216" y2="5.26127" stroke="#999999" stroke-linecap="round"/>
<path fill-rule="evenodd" clip-rule="evenodd" d="M21.8933 14.5263C21.9634 14.1315 21.9997 13.7271 21.9997 13.316C21.9997 9.25223 18.4487 5.84229 13.9207 5.84229C9.39276 5.84229 5.8418 9.25223 5.8418 13.316C5.8418 13.7271 5.87814 14.1315 5.94815 14.5263H4.93371C4.87314 14.131 4.8418 13.7269 4.8418 13.316C4.8418 8.63608 8.90658 4.84229 13.9207 4.84229C18.9349 4.84229 22.9997 8.63608 22.9997 13.316C22.9997 13.7269 22.9683 14.131 22.9078 14.5263H21.8933Z" fill="#999999"/>
<line x1="0.5" y1="15.2368" x2="27.3421" y2="15.2368" stroke="#999999" stroke-linecap="round"/>
<line x1="5.3418" y1="18.8687" x2="22.4997" y2="18.8687" stroke="#999999" stroke-linecap="round"/>
<line x1="11.3945" y1="22.5" x2="16.4472" y2="22.5" stroke="#999999" stroke-linecap="round"/>
<line x1="13.8154" y1="0.5" x2="13.8154" y2="3.13158" stroke="#999999" stroke-linecap="round"/>
<line x1="21.8507" y1="5.2614" x2="23.8666" y2="3.56986" stroke="#999999" stroke-linecap="round"/>
</svg>
