<svg width="347" height="152" viewBox="0 0 347 152" fill="none" xmlns="http://www.w3.org/2000/svg">
<g filter="url(#filter0_d_3270_9038)">
<rect x="6" y="5" width="335" height="140" rx="4" fill="white"/>
</g>
<line x1="173.5" y1="50" x2="173.5" y2="68" stroke="#CECECE" stroke-width="2" stroke-linecap="round"/>
<line x1="182.5" y1="59" x2="164.5" y2="59" stroke="#CECECE" stroke-width="2" stroke-linecap="round"/>
<path d="M68.018 88.51L67.458 89.504C65.652 89.266 63.664 88.51 63.048 87.362C62.516 88.51 60.612 89.252 58.666 89.476L58.148 88.51C59.968 88.384 61.914 87.796 62.334 86.48H58.596V85.486H67.472V86.48H63.804C64.28 87.796 66.366 88.398 68.018 88.51ZM66.66 95.65C66.66 96.518 65.708 97.092 63.02 97.092C60.276 97.092 59.338 96.518 59.338 95.65C59.338 94.796 60.276 94.222 63.02 94.222C65.708 94.222 66.66 94.796 66.66 95.65ZM68.578 91.072H57.532V90.078H62.404V88.608H63.65V90.078H68.578V91.072ZM67.668 93.9H58.456V92.976H67.668V93.9ZM65.442 95.65C65.442 95.216 64.546 95.062 63.02 95.062C61.452 95.062 60.598 95.216 60.598 95.65C60.598 96.084 61.452 96.252 63.02 96.252C64.546 96.252 65.442 96.084 65.442 95.65ZM65.036 92.514H61.088V91.548H65.036V92.514ZM81.0553 90.624H79.0953V96.98H77.8493V84.744H79.0953V89.602H81.0553V90.624ZM69.8273 89.938C69.8273 87.516 70.7793 85.612 72.9353 85.612C75.0913 85.612 76.0293 87.516 76.0293 89.952C76.0293 92.36 75.0913 94.264 72.9353 94.264C70.7793 94.264 69.8273 92.36 69.8273 89.938ZM74.8113 89.952C74.8113 88.048 74.1673 86.676 72.9353 86.676C71.7033 86.676 71.0733 88.048 71.0733 89.952C71.0733 91.828 71.7033 93.2 72.9353 93.2C74.1673 93.2 74.8113 91.828 74.8113 89.952ZM93.1546 90.876H91.2086V96.98H89.9626V84.744H91.2086V89.84H93.1546V90.876ZM87.1626 86.55H83.5086V85.542H87.1626V86.55ZM88.9406 88.65H81.6886V87.656H88.9406V88.65ZM88.2546 91.926C88.2546 93.368 87.1066 94.488 85.3706 94.488C83.6346 94.488 82.4726 93.396 82.4726 91.926C82.4726 90.484 83.6346 89.336 85.3706 89.336C87.1066 89.336 88.2546 90.456 88.2546 91.926ZM87.0366 91.926C87.0366 91.016 86.3226 90.372 85.3706 90.372C84.4186 90.372 83.7186 91.016 83.7186 91.926C83.7186 92.822 84.4046 93.452 85.3706 93.452C86.3786 93.452 87.0366 92.822 87.0366 91.926ZM104.918 91.982H93.8718V90.974H104.918V91.982ZM103.756 96.714H95.3418V93.088H96.5738V95.692H103.756V96.714ZM103.7 89.532H95.3838V85.248H96.6158V88.524H103.7V89.532ZM109.761 86.606V85.584H116.439V86.606H113.765V86.942C113.765 88.678 115.235 90.036 116.621 90.456L115.935 91.45C114.843 91.016 113.653 89.966 113.149 88.846C112.743 90.022 111.427 91.268 110.167 91.786L109.439 90.82C111.021 90.246 112.505 88.678 112.505 86.97V86.606H109.761ZM111.189 92.598H119.113V96.994H117.881V93.62H111.189V92.598ZM120.933 89.014H119.113V91.954H117.867V84.744H119.113V87.978H120.933V89.014ZM131.534 96.812H123.064V92.934H126.648V91.702H121.776V90.694H132.822V91.702H127.894V92.934H131.534V96.812ZM131.674 89.742H122.868V88.734H124.716L124.38 86.914L125.612 86.732L125.892 88.734H128.678L128.958 86.718L130.204 86.9L129.826 88.734H131.674V89.742ZM130.302 95.832V93.914H124.296V95.832H130.302ZM131.688 86.298H122.854V85.304H131.688V86.298ZM148.921 90.638H147.017V96.98H145.785V84.744H147.017V89.616H148.921V90.638ZM144.777 93.074L144.035 93.998C142.943 93.284 141.515 91.758 141.053 90.344C140.633 91.828 139.415 93.382 138.029 94.306L137.259 93.382C139.107 92.22 140.409 90.092 140.409 87.838V85.794H141.683V87.782C141.683 90.078 143.055 92.01 144.777 93.074ZM150.128 86.872V85.864H156.834V86.872H154.132V87.376C154.132 89.112 155.714 90.61 157.1 91.044L156.414 92.038C155.322 91.604 154.034 90.428 153.516 89.308C153.124 90.484 151.738 91.842 150.478 92.36L149.736 91.38C151.332 90.806 152.872 89.112 152.872 87.404V86.872H150.128ZM159.984 96.616H151.738V92.822H152.984V95.622H159.984V96.616ZM159.718 93.634H158.472V84.744H159.718V93.634ZM172.84 95.328H161.794V94.32H172.84V95.328ZM171.734 88.958C171.734 90.848 169.97 92.136 167.31 92.136C164.664 92.136 162.914 90.848 162.914 88.958C162.914 87.082 164.664 85.78 167.31 85.78C169.984 85.78 171.734 87.082 171.734 88.958ZM170.474 88.958C170.474 87.726 169.228 86.872 167.31 86.872C165.42 86.872 164.174 87.726 164.174 88.958C164.174 90.204 165.42 91.044 167.31 91.044C169.214 91.044 170.474 90.204 170.474 88.958ZM184.953 95.426H173.907V94.418H178.779V92.486H175.237V88.552H182.349V86.76H175.209V85.752H183.581V89.56H176.469V91.478H183.917V92.486H180.025V94.418H184.953V95.426ZM197.328 94.572C196.306 94.712 194.57 94.838 193.114 94.922C191.798 94.992 190.65 95.02 189.642 95.02L189.46 93.984C190.412 93.984 191.532 93.984 192.708 93.928V92.822C191.336 92.64 190.398 91.842 190.398 90.778C190.398 89.518 191.63 88.678 193.324 88.678C195.06 88.678 196.25 89.504 196.25 90.778C196.25 91.87 195.34 92.654 193.94 92.822V93.858C195.27 93.788 196.404 93.69 197.202 93.592L197.328 94.572ZM201.094 91.226H199.204V96.98H197.986V84.744H199.204V90.19H201.094V91.226ZM197.02 88.174H189.754V87.152H197.02V88.174ZM194.976 90.778C194.976 90.162 194.318 89.686 193.324 89.686C192.358 89.686 191.686 90.162 191.686 90.778C191.686 91.366 192.358 91.87 193.324 91.87C194.318 91.87 194.976 91.366 194.976 90.778ZM195.046 86.354H191.56V85.346H195.046V86.354ZM208.027 91.59H202.371V85.822H208.027V91.59ZM210.603 87.782H208.629V86.788H210.603V84.744H211.849V93.634H210.603V90.484H208.629V89.49H210.603V87.782ZM212.115 96.602H203.911V92.836H205.143V95.594H212.115V96.602ZM206.809 90.61V86.816H203.589V90.61H206.809ZM224.971 90.974H213.925V89.966H224.971V90.974ZM224.047 96.896H215.185V93.9H222.353V93.018H215.157V92.01H223.585V94.824H216.417V95.874H224.047V96.896ZM223.697 87.082C223.697 88.454 222.115 89.238 219.455 89.238C216.823 89.238 215.241 88.454 215.241 87.082C215.241 85.696 216.823 84.912 219.455 84.912C222.115 84.912 223.697 85.696 223.697 87.082ZM219.455 85.906C217.663 85.906 216.529 86.382 216.529 87.082C216.529 87.768 217.663 88.244 219.455 88.244C221.275 88.244 222.423 87.768 222.423 87.082C222.423 86.382 221.275 85.906 219.455 85.906ZM239.516 85.556C239.516 87.334 239.348 89.154 239.026 90.624H240.762V91.646H235.848V96.994H234.602V91.646H229.716V90.624H232.642C232.922 89.602 233.216 87.894 233.216 86.55H230.598V85.556H234.476C234.476 87.334 234.21 89.154 233.874 90.624H237.822C238.074 89.588 238.27 87.824 238.27 86.55H235.442V85.556H239.516ZM248.549 88.58V87.53H250.663V84.744H251.909V96.98H250.663V91.996H248.549V90.96H250.663V88.58H248.549ZM247.835 93.914H242.277V85.976H247.835V93.914ZM246.603 92.906V86.984H243.509V92.906H246.603ZM263.644 92.066H260.06V94.474H264.988V95.482H253.942V94.474H258.814V92.066H255.272V85.598H256.518V87.824H262.412V85.598H263.644V92.066ZM262.412 91.044V88.832H256.518V91.044H262.412ZM276.387 96.98H275.197V84.744H276.387V96.98ZM273.965 96.378H272.789V90.106H270.857V89.084H272.789V85.024H273.965V96.378ZM272.145 93.06L271.389 93.928C270.479 93.312 269.401 91.94 269.037 90.61C268.743 91.968 267.721 93.424 266.517 94.25L265.747 93.382C267.189 92.458 268.435 90.456 268.435 87.992V85.906H269.625V87.978C269.625 90.344 270.759 92.192 272.145 93.06ZM288.249 88.734C288.249 90.638 286.429 91.898 283.685 91.898C280.955 91.898 279.135 90.638 279.135 88.734C279.135 86.83 280.955 85.556 283.685 85.556C286.443 85.556 288.249 86.83 288.249 88.734ZM286.975 88.734C286.975 87.446 285.673 86.578 283.685 86.578C281.711 86.578 280.409 87.446 280.409 88.734C280.409 90.008 281.711 90.876 283.685 90.876C285.659 90.876 286.975 90.008 286.975 88.734ZM289.215 95.426H278.169V94.418H280.815V92.248L282.061 92.206V94.418H285.295V92.206L286.527 92.248V94.418H289.215V95.426Z" fill="#222222"/>
<defs>
<filter id="filter0_d_3270_9038" x="0" y="0" width="347" height="152" filterUnits="userSpaceOnUse" color-interpolation-filters="sRGB">
<feFlood flood-opacity="0" result="BackgroundImageFix"/>
<feColorMatrix in="SourceAlpha" type="matrix" values="0 0 0 0 0 0 0 0 0 0 0 0 0 0 0 0 0 0 127 0" result="hardAlpha"/>
<feMorphology radius="1" operator="dilate" in="SourceAlpha" result="effect1_dropShadow_3270_9038"/>
<feOffset dy="1"/>
<feGaussianBlur stdDeviation="2.5"/>
<feComposite in2="hardAlpha" operator="out"/>
<feColorMatrix type="matrix" values="0 0 0 0 0 0 0 0 0 0 0 0 0 0 0 0 0 0 0.1 0"/>
<feBlend mode="normal" in2="BackgroundImageFix" result="effect1_dropShadow_3270_9038"/>
<feBlend mode="normal" in="SourceGraphic" in2="effect1_dropShadow_3270_9038" result="shape"/>
</filter>
</defs>
</svg>
