<svg width="20" height="20" viewBox="0 0 20 20" fill="none" xmlns="http://www.w3.org/2000/svg">
<path d="M9.52413 1.47553C9.67315 1.01349 10.3269 1.01349 10.4759 1.47553L12.1216 6.57841C12.1883 6.78533 12.3811 6.92541 12.5985 6.92494L17.9602 6.91322C18.4457 6.91216 18.6477 7.53387 18.2543 7.81837L13.9097 10.9604C13.7336 11.0878 13.6599 11.3145 13.7275 11.5211L15.3955 16.6167C15.5466 17.0781 15.0177 17.4624 14.6256 17.1761L10.2948 14.0152C10.1192 13.887 9.88084 13.887 9.70522 14.0152L5.37442 17.1761C4.98229 17.4624 4.45343 17.0781 4.60446 16.6167L6.27245 11.5211C6.34009 11.3145 6.26645 11.0878 6.09027 10.9604L1.7457 7.81837C1.35231 7.53387 1.55432 6.91216 2.0398 6.91322L7.40147 6.92494C7.61889 6.92541 7.8117 6.78533 7.87843 6.57841L9.52413 1.47553Z" fill="#F2F2F2"/>
<path fill-rule="evenodd" clip-rule="evenodd" d="M10.0003 1.12889V13.9189C9.89686 13.9189 9.79338 13.951 9.70557 14.015L5.37477 17.176C4.98264 17.4623 4.45378 17.078 4.60481 16.6166L6.2728 11.521C6.34044 11.3144 6.2668 11.0877 6.09062 10.9603L1.74604 7.81826C1.35266 7.53377 1.55467 6.91205 2.04014 6.91311L7.40182 6.92483C7.61924 6.92531 7.81205 6.78523 7.87878 6.5783L9.52448 1.47542C9.59899 1.2444 9.79967 1.12889 10.0003 1.12889Z" fill="#F38A5E"/>
</svg>
