<svg width="21" height="24" viewBox="0 0 21 24" fill="none" xmlns="http://www.w3.org/2000/svg">
<path d="M15.3848 8.61523L20.4617 8.61523" stroke="#999999" stroke-linecap="round"/>
<path d="M10.3076 3.53857L15.3845 3.53857" stroke="#999999" stroke-linecap="round"/>
<path d="M17.9229 6.07715L17.9229 11.1541" stroke="#999999" stroke-linecap="round"/>
<path d="M12.8457 1L12.8457 6.07692" stroke="#999999" stroke-linecap="round"/>
<path d="M10.0042 13.8064C7.52773 11.2199 6.86949 8.2021 6.85699 6.12997C6.85232 5.35453 6.09044 4.70484 5.42232 5.09849C2.15363 7.02436 1.10908 10.9145 1.01115 12.8473C0.741365 18.9855 5.4327 21.8741 7.8121 22.5511C13.5162 24.1708 17.1636 21.0829 18.8459 18.4755C19.2528 17.8449 18.7184 17.0955 17.9683 17.0707C13.8912 16.9355 11.0157 14.9216 10.0042 13.8064Z" fill="#F6F6F6" stroke="#999999"/>
</svg>
